<?xml version="1.0" encoding="UTF-8"?><svg xmlns="http://www.w3.org/2000/svg" xmlns:xlink="http://www.w3.org/1999/xlink" height="3877.5" preserveAspectRatio="xMidYMid meet" version="1.0" viewBox="0.1 -10.1 2614.0 3877.5" width="2614.0" zoomAndPan="magnify"><g fill="none" stroke="#231f20" stroke-linecap="round" stroke-linejoin="round" stroke-miterlimit="22.926"><path d="M 2116.725608 373.620638 C 2645.57279 1578.223186 3174.419973 2782.7886 3538.014015 3612.804987 C 3901.570922 4442.784238 4099.87469 4898.177328 4261.488547 5434.377347 C 4423.065268 5970.54023 4547.952079 6587.547177 4779.306475 7252.273289 C 5010.66087 7916.999401 5348.557121 8629.444678 5598.293607 9165.644697 C 5847.992958 9701.844715 6009.606815 10061.688069 6222.579119 10311.498826 C 6435.58856 10561.198177 6700.030719 10700.79066 6979.141415 10987.217057 C 7258.25211 11273.717725 7552.068479 11707.01517 7838.532011 11960.390939 C 8124.958408 12213.803844 8404.069104 12287.295071 8694.209055 12404.79191 C 8984.31187 12522.288749 9285.51821 12683.902606 9516.83547 12794.083744 C 9748.227001 12904.302018 9909.840858 12963.013302 10001.60277 12915.294137 C 10093.513224 12867.612108 10115.497462 12713.313952 10023.698414 12592.103559 C 9931.825096 12470.893166 9726.205627 12382.807672 9480.108424 12346.117762 C 9234.048356 12309.316445 8947.621959 12323.984982 8969.643332 12423.211137 C 8991.701841 12522.288749 9322.208121 12705.998251 9575.621025 12805.112999 C 9829.033929 12904.302018 10005.316323 12919.007691 10108.181761 12801.399445 C 10211.010063 12683.902606 10240.310002 12434.203256 10130.203134 12166.084679 C 10019.984861 11898.003237 9770.248374 11611.613976 9414.007168 11339.781845 C 9057.803097 11067.98685 8595.094306 10810.897527 8172.751844 10439.987784 C 7750.372247 10069.115176 7368.433249 9584.310741 7166.415928 9466.813902 C 6964.435742 9349.279927 6942.414368 9599.016413 7291.302738 9962.57332 C 7640.191108 10326.204499 8359.989222 10803.581827 9046.773843 11167.213005 C 9733.558464 11530.695641 10387.218186 11780.506398 11125.39839 12166.084679 C 11863.61573 12551.700095 12686.20501 13073.19444 13281.190583 13455.207709 C 13876.101886 13837.109572 14243.409482 14079.493222 14632.701316 14281.510543 C 15021.881744 14483.490729 15433.306358 14645.104586 15716.093472 14667.088823 C 15998.806315 14689.110197 16153.104471 14571.613358 16219.205727 14399.007382 C 16285.306983 14226.401406 16263.28561 13998.686293 16134.685245 13844.388137 C 16006.196287 13690.201388 15771.202609 13609.394459 15602.19878 13675.495715 C 15433.306358 13741.596971 15330.515192 13954.606411 15359.81513 14141.918059 C 15389.18934 14329.192572 15550.803197 14490.806429 15749.106965 14523.894193 C 15947.410732 14556.907685 16182.515817 14461.395084 16241.301372 14292.502662 C 16300.012656 14123.498833 16182.515817 13881.189454 15925.389359 13642.482222 C 15668.300036 13403.70072 15271.692501 13168.707042 14926.517685 12919.007691 C 14581.194326 12669.196934 14287.489364 12404.79191 13993.598725 12132.996915 C 13699.782356 11861.313326 13406.11453 11582.202631 13075.60825 11306.694082 C 12744.990565 11031.296939 12377.682968 10759.501944 12058.205944 10546.492504 C 11738.691783 10333.483064 11466.896788 10179.296314 11433.883296 10223.301926 C 11400.906939 10267.381808 11606.489272 10509.802593 11999.49466 10730.090599 C 12392.388641 10950.490011 12972.705677 11148.793778 13446.517994 11427.904474 C 13920.181768 11707.01517 14287.489364 12066.895659 14592.297852 12346.117762 C 14897.10634 12625.191322 15139.489989 12823.49509 15323.088084 12874.890673 C 15506.797586 12926.286256 15631.610126 12830.810791 15664.697889 12643.499142 C 15697.711381 12456.187493 15639.000097 12177.113933 15561.795316 12077.999185 C 15484.701941 11978.810166 15389.18934 12059.617094 15293.713875 12166.084679 C 15198.31268 12272.589399 15102.688672 12404.79191 15117.505752 12526.002303 C 15132.100018 12647.212696 15256.986828 12757.393834 15370.88152 12801.399445 C 15484.701941 12845.516463 15587.604514 12823.49509 15657.307917 12724.306071 C 15727.085591 12625.191322 15763.812637 12448.908928 15657.307917 12184.503905 C 15550.803197 11919.987475 15301.103846 11567.496958 15044.014524 11240.592826 C 14786.888066 10913.8001 14522.483042 10612.59376 14195.616046 10304.108854 C 13868.786185 9995.623948 13479.494351 9679.786206 13178.399417 9389.683391 C 12877.193076 9099.543441 12664.183636 8835.138418 12528.304706 8758.007907 C 12392.388641 8680.877397 12333.714492 8791.058535 12509.88548 8945.28242 C 12686.20501 9099.543441 13097.592488 9297.847208 13409.790948 9529.238739 C 13721.915136 9760.593135 13934.887441 10024.998158 14070.803506 10046.982396 C 14206.682436 10069.115176 14265.39372 9848.715764 14302.08363 9595.339995 C 14338.884948 9341.927091 14353.59062 9055.463558 14158.889 8732.27298 C 13964.298786 8409.119537 13560.301279 8049.201913 13262.808492 7707.666379 C 12965.389977 7366.130845 12774.40191 7042.940267 12678.889309 6987.868266 C 12583.413843 6932.759129 12583.413843 7145.768569 12759.696237 7355.101591 C 12936.015767 7564.434613 13288.506284 7770.091217 13453.796559 7766.414799 C 13619.086834 7762.73838 13596.99119 7549.72894 13552.985578 7340.395918 C 13508.905696 7131.062896 13442.80444 6925.406292 13229.795 6561.849385 C 13016.78556 6198.255343 12656.793664 5676.760997 12377.682968 5331.549045 C 12098.609408 4986.299958 11900.30564 4817.3704 11639.614171 4611.713796 C 11378.811294 4406.057192 11055.694987 4163.673542 10772.907873 3917.613474 C 10490.083623 3671.553406 10247.699973 3421.81692 9946.567904 3230.865989 C 9645.398699 3039.877922 9285.51821 2907.67541 8966.00405 2713.010926 C 8646.452754 2518.383576 8367.342058 2261.294254 8132.34838 1805.901164 C 7897.280431 1350.508074 7706.3295 696.811216 7515.341433 43.114358" stroke-width="67.37" transform="matrix(.10519 0 0 -.10519 0 3868)"/><path d="M 9296.832803 4546.608913 C 10054.689877 4680.913313 10812.595454 4815.241963 11611.29193 4903.977932 C 12409.8914 4992.713901 13249.306021 5035.88144 13983.202686 5047.861645 C 14717.099351 5059.866101 15345.502311 5040.683223 15741.188584 4983.110337 C 16136.899108 4925.561702 16299.98995 4829.623059 16153.705346 4829.623059 C 16007.396491 4829.623059 15551.687938 4925.561702 14789.00483 5294.910925 C 14026.394476 5664.260149 12956.688311 6306.995702 12285.190566 6779.486242 C 11613.692821 7251.952531 11340.209486 7554.149555 11162.810302 8026.615843 C 10985.289861 8499.082132 10903.708062 9141.841937 10882.197047 9513.592051 C 10860.589026 9885.317915 10898.90628 9986.05834 10937.296288 10086.798765" stroke-width="43.996" transform="matrix(.16107 0 0 -.16107 0 3868)"/><path d="M 5268.768763 9298.385947 C 4141.586511 9876.425317 3014.40426 10454.501218 2046.170963 10779.59585 C 1077.937666 11104.800076 268.689854 11177.096095 80.80788 11155.39633 C -107.037563 11133.696565 326.482832 11018.110609 1110.450782 11018.110609 C 1894.418733 11018.110609 3028.907302 11133.696565 4087.446693 11364.905006 C 5145.986084 11596.113448 6128.612828 11943.017439 6796.994824 12228.402231 C 7465.376819 12513.787023 7819.404471 12737.798741 8112.095581 13109.90953 C 8404.677096 13481.983788 8635.922069 14002.303244 8787.6743 14558.606317 C 8939.389998 15114.982453 9011.649486 15707.488333 9083.872442 16299.994213" stroke-width="66.275" transform="matrix(.10693 0 0 -.10693 0 3868)"/><path d="M 5267.38138 12139.804568 C 5312.236313 11935.001449 5357.091246 11730.19833 5446.801111 11483.895015 C 5536.510977 11237.708998 5671.052315 10949.999324 5794.051485 10727.29646 C 5916.980276 10504.499757 6028.366898 10346.803701 6302.141513 10079.996614 C 6575.86921 9813.166068 7012.03182 9437.318328 7373.991421 9223.858583 C 7735.904103 9010.422297 8023.590316 8959.397465 8283.75831 8930.987777 C 8543.926304 8902.578089 8776.622998 8896.830464 8897.252739 9038.339332 C 9017.882479 9179.871659 9026.515646 9468.660478 8928.735646 9640.925003 C 8830.955647 9813.166068 8626.785939 9868.835919 8524.712816 9966.287483 C 8422.616232 10063.692128 8422.616232 10202.901945 8515.446237 10267.908754 C 8608.229322 10332.892103 8793.842412 10323.602065 8967.866414 10367.706288 C 9141.843496 10411.693212 9304.25495 10509.191695 9399.360545 10629.797976 C 9494.4896 10750.498096 9522.359715 10894.306013 9596.586183 10956.896474 C 9670.812651 11019.604233 9791.489311 11001.000697 9768.264215 10980.09811 C 9745.062579 10959.289363 9578.006106 10936.111186 9350.658223 10936.111186 C 9123.286879 10936.111186 8835.624125 10959.289363 8559.50354 10973.200961 C 8283.429875 10987.089099 8018.968757 10991.710658 7782.330835 10984.790049 C 7545.669453 10977.79906 7336.878187 10959.289363 7283.483926 10938.410236 C 7230.160044 10917.50765 7332.209708 10894.306013 7480.709564 10926.797688 C 7629.18596 10959.289363 7824.089088 11047.403969 8009.678719 11077.596594 C 8195.268349 11107.69538 8371.61486 11079.895644 8543.269433 11084.493744 C 8714.970925 11089.209142 8882.003938 11126.298916 9081.528626 11123.999866 C 9281.053314 11121.700816 9513.069676 11079.895644 9656.901053 11056.694008 C 9800.73243 11033.492371 9856.402282 11028.894271 9772.909235 11079.895644 C 9689.369268 11130.897016 9466.642944 11237.708998 9294.988371 11328.193033 C 9123.286879 11418.606689 9002.657139 11492.903537 8895.915536 11492.903537 C 8789.220853 11492.903537 8696.390848 11418.606689 8552.559471 11420.999578 C 8408.704635 11423.298628 8213.848426 11502.193575 8035.179405 11474.3 C 7856.533844 11446.500264 7694.12239 11311.888547 7559.557591 11223.7974 C 7425.039713 11135.588955 7318.29811 11093.807242 7378.61298 11079.895644 C 7438.95131 11066.007506 7666.299194 11079.895644 7840.299736 11149.500553 C 8014.300278 11219.105461 8134.953478 11344.403681 8197.590858 11555.493997 C 8260.251698 11766.607773 8264.896717 12063.607485 8216.147476 12256.211564 C 8167.421693 12448.698344 8065.34857 12536.906789 7998.066171 12532.308689 C 7930.783771 12527.593291 7898.292097 12430.188646 7979.509554 12339.704611 C 8060.72701 12249.197115 8255.583219 12165.704069 8411.050604 12147.100532 C 8566.494529 12128.590834 8682.47925 12174.994107 8775.309255 12249.197115 C 8868.09234 12323.400124 8937.673789 12425.496707 9002.680598 12462.70378 C 9067.617028 12499.793555 9127.955358 12471.89998 9130.230948 12416.300508 C 9132.553458 12360.607197 9076.907067 12276.996852 9014.246227 12230.593579 C 8951.608847 12184.190307 8882.003938 12174.994107 8914.472153 12170.302168 C 8946.963828 12165.704069 9081.528626 12165.704069 9199.835857 12223.696429 C 9318.166548 12281.68879 9420.239672 12397.696971 9424.884691 12529.892341 C 9429.52971 12662.205008 9336.746625 12810.704864 9227.705972 12926.689586 C 9118.66532 13042.697767 8993.39056 13126.190814 8902.883065 13290.901318 C 8812.399029 13455.588362 8756.729178 13701.610161 8747.43914 13982.305386 C 8738.149102 14263.000611 8775.262336 14578.51002 8893.616486 14845.293648 C 9011.923717 15112.100735 9211.448405 15330.205499 9301.932441 15513.49608 C 9392.416476 15696.81012 9373.836399 15845.309976 9318.166548 15854.600014 C 9262.473237 15863.796214 9169.690152 15733.899894 9199.835857 15641.093349 C 9230.005022 15548.310264 9383.126438 15492.593493 9587.296145 15527.407678 C 9791.489311 15562.198402 10046.70731 15687.496622 10315.789987 15784.901267 C 10584.896124 15882.39975 10868.007698 15952.004659 11081.397064 15984.496334 C 11294.80989 16017.011468 11438.711646 16012.29607 11559.294468 15928.803023 C 11679.994587 15845.309976 11777.399232 15682.898522 11800.600868 15694.51107 C 11823.802505 15706.100158 11772.801132 15891.689789 11568.607966 16040.189644 C 11364.391339 16188.595661 11007.194056 16300.005743 10626.701297 16274.505057 C 10246.208538 16249.004371 9842.514143 16086.592917 9663.868582 15972.907245 C 9485.199561 15859.198114 9531.602834 15794.191305 9517.691236 15645.808748 C 9503.779638 15497.308892 9429.52971 15265.292529 9355.303242 15077.31001 C 9281.053314 14889.39787 9206.803386 14745.589953 9220.738444 14692.195692 C 9234.650041 14638.89527 9336.746625 14676.008504 9438.022119 14792.39204 C 9539.321073 14908.705198 9639.845857 15104.405956 9849.012478 15208.003959 C 10058.20256 15311.695802 10376.104858 15323.30835 10609.200366 15267.591579 C 10842.389713 15211.898268 10990.79573 15088.899099 11062.394713 14976.011056 C 11133.993696 14863.099555 11128.504127 14760.299181 11183.892462 14713.497093 C 11239.210418 14666.695006 11355.19514 14676.008504 11420.10811 14708.500179 C 11485.091459 14740.898015 11499.003057 14796.591325 11438.711646 14743.197064 C 11378.396776 14689.896642 11243.808518 14527.508648 11011.792155 14441.599253 C 10779.799253 14355.807156 10450.401705 14346.493658 10195.207166 14346.493658 C 9939.942248 14346.493658 9758.997637 14355.807156 9622.110329 14371.994344 C 9485.199561 14388.298831 9392.416476 14411.500467 9401.683055 14437.001153 C 9410.973093 14462.501839 9522.359715 14490.395414 9559.449489 14532.106748 C 9596.586183 14573.888461 9559.449489 14629.605232 9489.86804 14652.806868 C 9420.239672 14676.008504 9318.166548 14666.695006 9383.126438 14645.79242 C 9448.086327 14624.889833 9680.10269 14592.491997 9926.03065 14576.210971 C 10171.911691 14560.000323 10431.798169 14560.000323 10645.210995 14583.201959 C 10858.6942 14606.403595 11025.703753 14652.806868 11190.390797 14747.889003 C 11355.19514 14842.994598 11517.606593 14986.896354 11666.106449 15135.302371 C 11814.489007 15283.802227 11949.100724 15436.900183 12032.593771 15399.810408 C 12116.110278 15362.697174 12148.601952 15135.302371 12144.003853 14789.694176 C 12139.288454 14443.992142 12097.60058 13980.006336 12004.794035 13446.392162 C 11912.01095 12912.707609 11768.109194 12309.488526 11494.404957 11845.502721 C 11220.606882 11381.493455 10816.889027 11056.694008 10598.807722 11068.306556 C 10380.796796 11079.895644 10348.305122 11427.896728 10487.491479 11847.80177 C 10626.701297 12267.800652 10937.589147 12759.609653 11234.49502 13135.504312 C 11531.494732 13511.305132 11814.489007 13771.19161 11925.899088 13671.394076 C 12037.309169 13571.596543 11976.994299 13112.302676 11851.602241 12578.688502 C 11726.39786 12045.097788 11536.092831 11437.210226 11313.389967 10954.597424 C 11090.710562 10472.101921 10835.492563 10114.810799 10599.206537 9854.150151 C 10362.897051 9593.536423 10145.589916 9429.600089 9928.30624 9265.640296" stroke-width="42.56" transform="matrix(.1665 0 0 -.1665 0 3868)"/><path d="M 6997.062712 13830.006176 C 7078.961119 13875.907055 7165.442705 13925.193498 7254.826202 13977.197604 M 7827.147747 14322.294828 C 7944.813371 14395.994182 8061.765033 14471.305709 8174.778386 14546.409957 C 8662.852357 14870.894393 9077.618501 15193.904842 9300.720264 15487.205239 C 9523.822026 15780.597761 9555.236376 16044.395385 9655.029907 16147.298108 C 9754.84647 16250.108707 9923.065245 16192.093496 10039.395068 16231.891148 C 10078.593912 16245.410373 10111.988932 16270.007532 10139.603158 16299.993957" stroke-width="41.782" transform="matrix(.1696 0 0 -.1696 0 3868)"/><path d="M 6649.190372 11067.900063 C 6663.274262 11107.703076 6677.325285 11147.50609 6647.284034 11252.305354 C 6617.209916 11357.104618 6543.010657 11527.097339 6389.714822 11622.496387 C 6236.38612 11717.895435 6003.993711 11738.799412 5931.585752 11716.005531 C 5859.161359 11693.096613 5946.704981 11626.50627 6080.904572 11629.102833 C 6215.087728 11631.798 6395.976155 11703.696507 6490.389166 11790.007583 C 6584.835045 11876.302226 6592.85481 11976.8944 6645.607772 12065.09538 C 6698.3443 12153.29636 6795.781157 12229.007542 6806.496088 12312.097566 C 6817.21102 12395.204023 6741.187593 12485.705755 6651.737633 12587.201796 C 6562.287673 12688.796441 6459.394747 12801.401829 6338.276576 12857.392277 C 6217.174839 12913.300557 6077.81499 12912.593897 5967.773298 12981.994445 C 5857.715172 13051.394992 5776.942334 13190.902747 5779.604633 13249.999211 C 5782.266932 13308.997072 5868.380802 13287.797283 5995.102947 13163.605965 C 6121.857961 13039.496816 6289.237686 12812.593345 6434.234378 12668.401916 C 6579.247504 12524.292657 6701.84473 12463.092647 6799.643134 12469.107471 C 6897.425103 12475.204465 6970.391817 12548.499857 6995.9466 12651.803632 C 7021.501384 12755.107407 6999.660672 12888.501734 7068.732541 12991.591868 C 7137.804409 13094.698436 7297.821727 13167.599414 7338.906588 13268.503833 C 7380.057185 13369.391818 7302.275326 13498.201075 7108.091838 13517.395922 C 6913.957651 13536.607203 6603.372535 13446.204074 6386.806014 13431.495694 C 6170.22306 13416.902351 6047.592966 13478.200964 6115.202214 13510.000647 C 6182.795027 13541.701726 6440.643616 13544.002478 6713.792208 13500.403223 C 6986.957233 13456.705365 7275.471562 13367.1075 7463.212944 13398.693541 C 7650.987194 13430.296016 7737.955628 13583.098832 7750.708369 13711.398636 C 7763.46111 13839.599837 7701.965289 13943.396631 7723.723832 14039.896753 C 7745.498808 14136.495478 7850.511714 14225.797533 7827.504191 14294.705062 C 7804.496669 14363.694761 7653.452285 14412.306369 7411.051604 14327.392178 C 7168.667357 14242.593024 6834.943246 14024.300939 6557.258886 13890.495763 C 6279.574526 13756.805625 6057.946351 13707.602395 6036.204243 13727.701109 C 6014.495002 13747.799824 6192.655394 13837.299085 6410.405159 13916.297056 C 6628.154923 13995.295027 6885.477626 14063.808142 7077.294626 14185.797312 C 7269.12806 14307.704312 7395.422923 14483.103802 7452.875993 14675.594593 C 7510.312629 14868.003215 7498.85817 15077.50314 7482.687168 15259.295433 C 7466.483299 15441.104161 7445.595755 15595.303862 7377.542791 15669.798933 C 7309.522695 15744.195399 7194.353612 15739.002273 7100.532223 15666.594313 C 7006.727268 15594.202788 6934.270007 15454.695033 6813.201138 15357.406082 C 6692.148703 15260.100697 6522.501094 15205.096285 6385.819978 15070.206468 C 6249.122427 14935.300218 6145.407804 14720.607167 6088.382016 14498.502408 C 6031.372663 14276.496251 6021.002844 14047.09482 5963.845585 13938.203504 C 5906.70476 13829.295754 5802.776495 13840.996723 5821.823437 13954.998996 C 5840.903246 14069.099872 5983.023998 14285.600657 6134.364193 14513.901013 C 6285.687954 14742.102767 6446.264025 14982.104092 6562.304107 15161.49703 C 6678.377057 15340.807798 6749.897584 15459.493745 6749.305962 15562.304502 C 6748.71434 15665.000221 6676.010569 15751.902919 6670.127217 15853.201753 C 6664.243865 15954.401983 6725.180931 16070.096952 6662.912716 16156.506632 C 6600.6445 16242.899879 6415.154568 16300.007836 6165.490084 16208.503633 C 5915.842033 16116.99943 5602.002995 15876.899501 5497.253033 15677.900867 C 5392.535939 15478.902234 5496.842185 15321.004895 5556.957554 15109.302822 C 5617.072923 14897.600749 5632.964547 14632.192546 5623.416425 14420.194662 C 5613.851869 14208.196778 5578.8147 14049.59278 5549.036392 14045.697935 C 5519.274519 14041.80309 5494.722206 14192.699569 5504.993421 14382.002175 C 5515.297504 14571.403385 5560.392248 14799.19429 5542.397079 14979.392491 C 5524.385476 15159.492089 5443.316828 15292.097587 5376.611447 15357.701893 C 5309.906066 15423.404803 5257.613255 15422.303729 5218.253958 15476.30567 C 5178.927529 15530.307612 5152.501746 15639.494739 5073.306567 15723.702271 C 4994.144257 15807.893368 4862.212551 15867.10487 4692.334866 15845.198422 C 4522.424314 15823.19337 4314.534917 15720.103237 4137.574203 15555.205038 C 3960.613488 15390.191801 3814.581458 15163.501971 3741.417537 14969.992275 C 3668.27005 14776.499012 3668.007107 14616.399525 3724.687781 14521.493496 C 3781.368456 14426.702504 3894.95988 14397.203574 4016.275258 14384.697342 C 4137.60707 14372.306148 4266.67927 14376.907652 4347.435674 14314.097116 C 4428.175643 14251.204411 4460.632683 14120.899665 4547.535382 14040.406205 C 4634.454514 13959.797707 4775.852172 13929.099099 4889.657238 13826.40338 C 5003.413002 13723.806265 5089.592606 13549.195604 5046.009786 13509.392591 C 5002.426965 13469.606011 4829.081719 13564.495607 4705.317683 13678.004861 C 4581.602949 13791.596286 4507.452991 13923.807369 4433.155128 14052.501588 C 4358.873699 14181.195807 4284.395063 14306.504634 4207.533504 14339.503995 C 4130.655512 14372.601959 4051.378164 14313.505494 3973.924983 14256.003123 C 3896.438935 14198.599355 3820.809923 14142.806113 3780.809702 14182.904938 C 3740.825915 14223.003762 3736.503787 14358.994653 3682.534714 14436.299928 C 3628.56564 14513.703806 3524.916752 14532.307031 3398.523285 14510.104772 C 3272.17912 14487.902513 3123.057508 14424.993374 3004.585202 14346.800666 C 2886.145764 14268.492921 2798.322765 14175.00021 2744.205786 14055.492566 C 2690.039505 13936.099959 2669.56281 13790.692419 2711.337897 13635.605285 C 2753.09655 13480.501716 2857.09055 13315.603518 2938.816556 13196.99974 C 3020.542562 13078.297359 3079.984139 13006.004437 3188.201664 12934.993363 C 3296.452056 12863.900119 3453.494829 12794.105157 3628.631376 12777.506873 C 3803.767922 12760.892155 3996.94894 12797.506984 4200.253267 12903.292284 C 4403.524726 13008.995415 4616.903061 13184.00049 4799.500618 13217.492869 C 4982.11461 13251.100285 5133.964257 13143.29361 5113.208185 13107.599082 C 5092.435679 13072.003158 4899.057454 13108.601553 4696.492654 13056.80176 C 4493.894987 13004.903363 4282.09431 12864.705383 4123.736821 12789.996671 C 3965.395766 12715.304393 3860.514333 12706.101385 3723.866084 12687.892574 C 3587.217836 12669.700198 3418.802773 12642.502019 3324.537667 12559.592769 C 3230.256128 12476.798557 3210.075244 12338.391877 3273.000817 12189.303132 C 3335.942825 12040.197954 3481.974855 11880.394278 3651.211616 11771.798773 C 3820.431942 11663.104664 4012.889866 11605.700896 4195.421687 11599.193054 C 4377.986376 11592.701646 4550.624963 11637.204767 4670.461286 11630.0067 C 4790.29761 11622.907236 4857.282367 11564.106582 4944.973895 11577.598851 C 5032.632555 11591.107553 5140.997985 11676.695536 5270.365996 11688.297901 C 5399.734007 11699.900266 5550.153901 11637.401975 5669.513639 11617.894883 C 5788.889812 11598.502828 5877.172962 11622.101972 5860.032358 11666.407887 C 5842.87532 11710.697367 5720.26166 11775.693618 5694.706876 11867.592235 C 5669.168527 11959.392249 5740.689053 12078.09463 5727.443294 12209.303243 C 5714.213968 12340.495422 5616.201923 12484.193832 5610.762288 12659.691925 C 5605.322652 12835.305056 5692.47186 13042.602832 5684.156284 13128.305852 C 5675.824274 13213.992439 5572.043915 13178.100704 5526.65336 13072.693384 C 5481.262805 12967.401102 5494.294923 12792.691838 5541.427476 12602.501799 C 5588.592897 12412.295325 5669.875186 12206.608076 5659.14382 12123.501619 C 5648.445323 12040.395161 5545.73317 12079.902364 5439.504152 12079.392912 C 5333.258701 12078.998497 5223.479952 12038.702465 5143.594548 12082.30172 C 5063.725578 12125.999578 5013.766387 12253.592723 4928.901497 12302.697349 C 4844.053042 12351.801975 4724.315322 12322.401649 4634.125835 12253.296912 C 4543.936348 12184.307213 4483.327961 12075.498067 4538.496712 11985.998805 C 4593.64903 11896.40094 4764.627788 11825.997922 4757.906305 11793.294372 C 4751.21769 11760.492219 4566.8617 11765.307365 4469.654919 11849.794273 C 4372.481005 11934.297616 4362.472733 12098.406985 4274.288187 12151.094211 C 4186.136508 12203.896475 4019.775688 12145.194425 3950.802423 12198.801952 C 3881.845592 12252.393045 3910.227015 12418.293715 3879.676312 12513.692763 C 3849.174911 12609.09181 3759.724951 12634.104274 3670.307859 12659.0017" stroke-width="29.814" transform="matrix(.2377 0 0 -.2377 0 3868)"/><path d="M 5919.294754 12479.902945 C 5973.387792 12548.392399 6027.463794 12616.796667 6124.831264 12589.196439 C 6222.198734 12561.493989 6362.857672 12437.80408 6512.018161 12442.898196 C 6661.161614 12447.907126 6818.823655 12581.597858 6893.599828 12685.899459 C 6968.358963 12790.201061 6960.232229 12865.198716 7006.249646 12932.001489 C 7052.301137 12998.804263 7152.513815 13057.497339 7259.285807 13075.897491 C 7366.074836 13094.297643 7479.440216 13072.302647 7578.341031 13117.19561 C 7677.22481 13162.10561 7761.712174 13273.801346 7782.241973 13368.596202 C 7802.754734 13463.305872 7759.309932 13541.097625 7777.931567 13613.403407 C 7796.519127 13685.606965 7877.173126 13752.392701 7880.716859 13797.694556 C 7884.260592 13842.894188 7810.694059 13866.695126 7839.095034 13896.101294 C 7867.496009 13925.507463 7997.864492 13960.604048 8108.623183 14068.091602 C 8219.398912 14175.596192 8310.547812 14355.696196 8321.621977 14521.297562 C 8332.696143 14686.796705 8263.695574 14838.001656 8157.485809 14905.094062 C 8051.293081 14972.101281 7907.925232 14955.098178 7784.984958 14915.895632 C 7662.044685 14876.693087 7559.583099 14815.308136 7528.558399 14828.392688 C 7497.58481 14841.596501 7538.065144 14929.201668 7526.956904 15058.394585 C 7515.831627 15187.60454 7453.134813 15358.300022 7469.57569 15502.894548 C 7486.016566 15647.506112 7581.61217 15765.999682 7624.614006 15885.293999 C 7667.615842 16004.605354 7657.989837 16124.802641 7629.41849 16194.007657 C 7600.847143 16263.297858 7553.313418 16281.595787 7505.779692 16299.995938" stroke-width="30.908" transform="matrix(.22928 0 0 -.22928 0 3868)"/><path d="M 3173.646995 15156.104353 C 3181.28234 15254.602162 3188.936262 15353.007085 3226.704283 15435.100978 C 3264.490882 15517.306336 3332.428734 15583.107778 3316.693606 15656.005818 C 3300.958479 15728.903857 3201.531795 15808.805608 3220.536559 15837.507817 C 3239.541323 15866.19145 3376.977536 15843.601232 3469.642016 15904.99981 C 3562.325074 15966.398388 3610.217823 16111.897228 3703.532516 16195.291545 C 3796.865786 16278.704439 3935.602422 16299.994234 4002.16554 16247.791509 C 4068.691503 16195.607362 4063.025371 16069.800653 4115.525336 16023.691343 C 4168.0253 15977.60061 4278.672783 16011.002922 4389.338844 16044.498123" stroke-width="33.703" transform="matrix(.21027 0 0 -.21027 0 3868)"/><path d="M 3970.103401 14857.09978 C 3916.206457 14916.195078 3862.275648 14975.307309 3878.124702 15104.199403 C 3893.973756 15233.006834 3979.602674 15431.594128 4092.476386 15533.105965 C 4205.367032 15634.702466 4345.502472 15639.104981 4408.610832 15705.396698 C 4471.719192 15771.603751 4457.73274 15899.598409 4505.720154 16011.506955 C 4553.690635 16123.500165 4663.618049 16219.305665 4779.793648 16259.605611 C 4896.003112 16300.007152 5018.477694 16284.903139 5140.952276 16269.69753" stroke-width="30.719" transform="matrix(.2307 0 0 -.2307 0 3868)"/><path d="M 6532.683544 15091.005685 C 6534.849243 15094.907678 6503.782656 15137.194831 6530.629863 15198.8986 C 6557.47707 15260.695718 6642.256743 15341.890784 6666.434165 15442.894534 C 6690.648927 15543.898283 6654.2241 15664.505348 6568.006851 15748.500888 C 6481.770933 15832.496427 6345.742593 15879.899111 6285.159013 15939.194473 C 6224.575433 15998.396486 6239.473953 16069.603196 6232.566118 16048.207577 C 6225.676953 16026.69994 6196.981433 15912.608643 6205.233495 15881.896782 C 6213.522897 15851.203591 6258.741212 15903.908505 6221.886979 15942.200315 C 6185.051415 15980.398775 6066.105965 16004.296151 6019.319385 16056.104913 C 5972.532805 16108.007025 5997.905096 16188.007222 5984.705531 16202.495005 C 5971.505965 16216.90811 5919.753212 16165.808801 5915.104426 16106.700137 C 5910.455639 16047.498124 5952.948159 15980.305426 5934.689071 15991.992736 C 5916.411313 16003.792065 5837.400617 16094.396723 5796.233654 16168.403906 C 5755.066692 16242.504439 5751.724793 16300.007498 5742.931306 16280.590881 C 5734.156488 16261.192933 5719.911412 16164.893979 5740.653587 16098.690782 C 5761.414432 16032.506255 5817.181197 15996.398815 5799.202156 16036.706966 C 5781.241785 16077.108465 5689.572948 16194.000235 5601.675415 16240.506768 C 5513.740543 16286.99463 5429.595644 16263.097255 5433.572317 16242.093703 C 5437.604999 16221.202169 5529.759252 16203.204459 5584.517847 16145.309334 C 5639.257771 16087.507558 5656.620708 15989.808367 5651.785224 15970.205051 C 5646.949739 15950.601736 5619.915833 16009.206314 5546.804801 16033.309058 C 5473.712439 16057.299782 5354.542951 16046.90069 5351.593119 16025.299703 C 5348.643286 16003.605367 5461.894441 15970.802486 5515.140779 15916.006551 C 5568.387118 15861.191947 5561.647312 15784.290941 5602.944963 15735.002605 C 5644.223945 15685.695599 5733.577724 15663.795895 5744.928977 15681.102822 C 5756.242891 15698.391079 5689.554278 15754.792619 5662.258995 15807.497533 C 5634.963712 15860.202447 5647.061758 15909.098716 5678.632431 15907.605131 C 5710.240443 15906.204894 5761.321083 15854.50815 5821.979342 15796.295638 C 5882.674941 15738.195145 5952.966829 15673.690902 5970.572474 15669.004776 C 5988.140778 15664.206631 5953.022839 15719.207933 5945.293531 15767.002684 C 5937.564224 15814.890783 5957.204879 15855.497651 5952.966829 15893.304045 C 5948.728779 15931.09177 5920.630694 15966.004341 5940.196669 15961.094177 C 5959.762645 15956.296032 6026.992683 15911.693822 6052.81305 15848.19775 C 6078.633417 15784.795026 6063.044113 15702.405092 6074.02197 15638.591632 C 6084.999827 15574.796842 6122.526174 15529.597198 6098.834167 15530.605368 C 6075.14216 15531.706888 5990.231799 15579.090902 5936.574724 15573.601974 C 5882.917648 15568.094376 5860.495189 15509.695165 5817.349225 15517.592501 C 5774.184592 15525.508506 5710.259113 15599.609039 5705.106242 15594.904243 C 5699.9347 15590.199447 5753.554436 15506.595974 5747.318715 15434.698481 C 5741.101663 15362.800987 5675.085164 15302.497455 5675.365212 15213.79712 C 5675.663929 15125.096784 5742.259192 15007.999646 5841.676007 14952.998344 C 5941.055481 14898.10906 6073.275177 14905.296943 6181.765526 14949.600436 C 6290.255875 14993.79191 6375.035547 15075.098995 6435.096372 15098.398936 C 6495.157197 15121.698876 6530.536514 15087.197041 6532.683544 15091.005685 Z M 6532.683544 15091.005685" stroke-width="33.87" transform="matrix(.20923 0 0 -.20923 0 3868)"/><path d="M 8815.063818 15177.601048 C 8648.279318 15248.089594 8481.471314 15318.601643 8308.223209 15340.507386 C 8134.998609 15362.389625 7955.286899 15335.595046 7763.470622 15269.595769 C 7571.607336 15203.502475 7367.639482 15098.110465 7245.418597 14984.092482 C 7123.221216 14870.098002 7082.817812 14747.407037 7033.059809 14582.69089 C 6983.325311 14418.092264 6924.189205 14211.60948 6766.171703 14131.507792 C 6608.130697 14051.50012 6351.255303 14097.897049 6171.590601 14007.688634 C 5991.9259 13917.409707 5889.542405 13690.407917 5867.80119 13677.692244 C 5846.083479 13665.000075 5904.96104 13866.500008 6028.404134 14091.29242 C 6151.870732 14316.108337 6339.879359 14564.193229 6533.387925 14740.99044 C 6726.896492 14917.811156 6925.952007 15023.391197 7103.28981 15090.095596 C 7280.60411 15156.799994 7436.294714 15184.699261 7457.636361 15216.100627 C 7478.978008 15247.501993 7365.970697 15282.499474 7246.617302 15259.206993 C 7127.263907 15236.008529 7001.564427 15154.4966 6880.189687 15224.703097 C 6758.83845 15294.909594 6641.858961 15516.905029 6546.808719 15701.693605 C 6451.781981 15886.599702 6378.778506 16034.298941 6351.06727 16137.693109 C 6323.332531 16240.993261 6340.937039 16299.988342 6378.331929 16245.999616 C 6415.750323 16192.010891 6473.006107 16025.108871 6620.517314 15954.902374 C 6768.028521 15884.789893 7005.818654 15911.396439 7162.707964 15828.403758 C 7319.620777 15745.293556 7395.585758 15552.60763 7502.270488 15433.207226 C 7608.955218 15313.900839 7746.359698 15267.809463 7731.716696 15247.290457 C 7717.120702 15226.794955 7550.477226 15231.80131 7430.512726 15305.697938 C 7310.595235 15379.594565 7237.333215 15522.404969 7122.89216 15608.500181 C 7008.498112 15694.595392 6852.925028 15723.998917 6752.069294 15778.692763 C 6651.190055 15833.410113 6605.004663 15913.300265 6558.842775 15993.190416" stroke-width="42.64" transform="matrix(.1662 0 0 -.1662 0 3868)"/><path d="M 8816.681574 16299.309748 C 8801.989909 16298.707013 8618.356655 16225.399372 8524.832279 16151.589452 C 8431.307903 16077.804646 8427.967746 16003.492447 8324.171762 15944.29885 C 8220.350663 15885.105254 8016.174192 15841.105601 7948.592533 15759.008075 C 7881.010875 15676.910549 7950.099371 15556.690037 7949.998915 15436.896461 C 7949.923573 15317.203342 7880.709507 15197.912046 7883.421815 15080.705208 C 7886.109008 14963.49837 7960.747689 14848.300649 8066.452334 14802.29188 C 8172.131866 14756.308224 8308.902476 14779.387951 8310.660453 14788.604773 C 8312.368202 14797.896937 8179.13866 14793.301083 8115.248753 14851.992401 C 8051.358846 14910.809288 8056.883916 15032.888234 8137.298807 15134.398848 C 8217.713698 15235.909463 8373.043522 15316.701063 8461.595335 15451.110961 C 8550.147148 15585.495745 8571.946062 15773.398372 8570.991732 15899.897374 C 8570.037402 16026.29592 8546.35494 16091.290841 8611.676343 16159.70126 C 8677.022859 16228.11168 8831.348125 16299.987825 8816.681574 16299.309748 Z M 8816.681574 16299.309748" stroke-width="45.561" transform="matrix(.15554 0 0 -.15554 0 3868)"/><path d="M 9147.795269 15325.007572 C 8911.864325 15468.597638 8675.933382 15612.095362 8519.531019 15754.092548 C 8363.151742 15896.089733 8286.324131 16036.609465 8291.125857 16115.791768 C 8295.904497 16195.089497 8382.335559 16213.211394 8412.669538 16126.295543 C 8443.003516 16039.310435 8417.217326 15847.195238 8307.400937 15744.489096 C 8197.607633 15641.80604 8003.737959 15628.601294 7820.625997 15690.608194 C 7637.537121 15752.707435 7465.159787 15890.110661 7308.318805 15910.702677 C 7151.500909 15931.202352 7010.150109 15834.798475 6832.186152 15847.703113 C 6654.176024 15860.607751 6439.529653 15982.797818 6312.768712 16076.408383 C 6186.007771 16169.995863 6147.086091 16235.003841 6108.141326 16299.988734" stroke-width="41.88" transform="matrix(.16921 0 0 -.16921 0 3868)"/><path d="M 8806.078329 15927.50363 C 8871.112313 15700.797785 8936.124812 15474.006001 9078.524958 15348.793561 C 9220.925104 15223.495182 9440.712898 15199.797632 9642.990716 15191.697925 C 9845.225565 15183.705642 10029.993407 15191.289717 10221.099216 15063.198337 C 10412.290963 14934.999532 10609.799193 14671.103788 10681.90162 14453.89415 C 10754.089987 14236.705997 10700.894036 14066.010589 10731.810422 14120.409679 C 10762.705324 14174.80877 10877.691079 14454.194935 10920.101744 14736.803795 C 10962.404986 15019.498593 10932.090169 15305.394602 10811.991072 15520.305384 C 10691.891975 15735.108743 10482.094535 15878.905391 10259.707101 15843.391293 C 10037.298182 15807.898679 9802.21333 15593.09532 9592.372921 15508.102113 C 9382.511028 15423.108905 9197.850609 15467.904365 9086.388334 15587.509316 C 8974.904574 15707.092782 8936.640443 15901.507224 8928.540736 15974.791307 C 8920.462514 16047.989451 8942.591686 15999.906843 9075.688986 16052.909432 C 9208.786287 16105.890536 9452.8732 16259.999807 9665.506611 16280.002001 C 9878.140022 16300.004194 10059.298446 16186.006732 10219.101145 16074.608911 C 10378.903844 15963.189605 10517.393787 15854.606271 10605.609689 15765.208714 C 10617.598114 15753.005442 10628.705669 15741.210379 10638.996809 15729.694616" stroke-width="38.977" transform="matrix(.18182 0 0 -.18182 0 3868)"/><path d="M 8653.896021 14898.690594 C 8843.224595 14798.209272 9032.55317 14697.805124 9278.450723 14736.797588 C 9524.328982 14775.905814 9826.77622 14954.391358 10085.504049 15002.992059 C 10344.309053 15051.708522 10559.394649 14970.405086 10624.394951 15006.291273 C 10689.395254 15042.196753 10604.290969 15195.291856 10485.596442 15397.894461 C 10366.998384 15600.593534 10214.790789 15852.80011 10027.893214 16011.393903 C 9841.014932 16170.006989 9619.38879 16235.007291 9397.743353 16300.007594" stroke-width="35.002" transform="matrix(.20246 0 0 -.20246 0 3868)"/><path d="M 9257.480275 16208.095572 C 9537.47022 16254.106786 9817.460165 16299.997919 10099.891767 16238.896467 C 10382.303355 16177.795016 10667.196626 16009.700981 10821.101035 15879.792851 C 10975.005444 15749.804667 10997.900976 15658.102457 11020.796508 15566.300178" stroke-width="36.308" transform="matrix(.19518 0 0 -.19518 0 3868)"/><path d="M 7976.469203 16121.894401 C 8210.270985 16210.904255 8444.090264 16300.001596 8696.124455 16278.199693 C 8948.158646 16256.397791 9218.425246 16123.696645 9373.768175 16011.905029 C 9529.093606 15900.200899 9569.495366 15809.301314 9542.129254 15798.505348 C 9514.745645 15787.691885 9419.611662 15856.894552 9272.352584 15839.397038 C 9125.093507 15822.00451 8925.726833 15717.894302 8781.407338 15602.305724 C 8637.10534 15486.69965 8547.833024 15359.597708 8473.048649 15325.005123 C 8398.246777 15290.307553 8337.915349 15348.101842 8297.128644 15429.395292 C 8256.341939 15510.706239 8235.117455 15615.49885 8318.125661 15749.897255 C 8401.133867 15884.295659 8588.357266 16048.299858 8765.83455 16098.692698 C 8943.311834 16149.103035 9111.043003 16085.902015 9219.492594 16044.800355 C 9327.977181 16003.80368 9377.162693 15984.906365 9426.383199 15965.991552" stroke-width="31.744" transform="matrix(.22325 0 0 -.22325 0 3868)"/><path d="M 5648.580573 16299.998635 C 5598.368919 16116.396424 5548.134211 15932.909484 5519.662497 15711.798383 C 5499.190527 15553.002297 5489.899757 15374.794727 5530.013751 15194.189539 M 5892.215451 14574.29001 C 5960.847267 14502.107875 6023.946118 14447.008769 6064.68257 14419.897242 C 6166.650498 14351.703452 6128.035016 14458.305238 6218.545096 14572.906769 C 6307.418341 14685.410384 6520.598859 14805.798473 6694.080355 14974.80749 M 7051.786521 15510.006551 C 7055.429056 15519.597023 7058.794942 15529.003063 7061.907235 15538.201617 C 7113.940157 15692.409953 7087.381927 15775.496639 7060.823696 15858.606379" stroke-width="41.824" transform="matrix(.16944 0 0 -.16944 0 3868)"/><path d="M 4100.726218 14944.302791 C 3941.893486 14893.699596 3783.060754 14843.096401 3624.025041 14864.409419 C 3464.989328 14885.702139 3305.710038 14978.992265 3187.818599 15035.908173 C 3069.967757 15092.803783 2993.443872 15113.507858 3002.009676 15135.693695 C 3010.534883 15157.899831 3104.088884 15181.608026 3211.019342 15240.208678 C 3317.990396 15298.890521 3438.358204 15392.403927 3584.869982 15398.696342 C 3731.422355 15405.009055 3904.159294 15324.100777 3936.79866 15333.295822 C 3969.519217 15342.592358 3862.142201 15442.093706 3719.182593 15467.892608 C 3576.28388 15493.691509 3397.721383 15445.808261 3282.935555 15380.00178 C 3168.12943 15314.195298 3117.018782 15230.50618 3101.064466 15234.504908 C 3085.110149 15238.402146 3104.312164 15330.007528 3193.603561 15425.997303 C 3282.874661 15522.007376 3442.255442 15622.300351 3606.061211 15637.503637 C 3769.846683 15652.706924 3938.016546 15582.800224 3948.206199 15569.403469 C 3958.334957 15556.108206 3810.442908 15599.302589 3689.242877 15670.305388 C 3568.063144 15741.409676 3473.595728 15840.302081 3430.360748 15930.405404 C 3387.10547 16020.589918 3395.06233 16101.904158 3439.982053 16120.294248 C 3484.922075 16138.806127 3566.784363 16094.190875 3604.559151 16113.595871 C 3642.374535 16133.102357 3636.102418 16216.507302 3629.830301 16299.99344" stroke-width="36.824" transform="matrix(.19244 0 0 -.19244 0 3868)"/><path d="M 12133.008331 15496.506492 C 12312.401848 15571.305109 12491.795364 15646.103726 12719.601918 15682.105594 C 12947.408472 15718.202203 13223.509636 15715.596805 13577.299041 15690.111272 C 13931.088446 15664.696796 14362.400294 15616.402186 14713.205333 15461.499413 C 15064.010373 15306.691383 15334.308605 15045.298876 15380.803122 14988.406451 C 15427.297639 14931.490341 15249.988442 15079.097998 15007.591657 15084.498278 C 14765.100131 15089.898558 14457.592074 14953.091461 14116.995458 14964.105191 C 13776.398843 14975.095234 13402.903153 15133.906104 13115.788259 15266.497193 C 12828.697051 15399.088281 12628.199808 15505.506959 12576.589236 15591.106137 C 12525.097091 15676.610572 12622.610044 15741.200765 12824.694212 15878.292087 C 13026.802064 16015.407094 13333.599558 16224.999545 13692.102365 16262.493595 C 14050.510431 16300.011331 14460.600125 16165.40698 14742.40948 15956.004013 C 15024.100408 15746.601045 15177.510998 15462.39946 15256.809848 15288.99836 C 15336.20344 15115.692001 15341.508978 15053.209813 15346.790831 14990.703939" stroke-width="42.969" transform="matrix(.16492 0 0 -.16492 0 3868)"/><path d="M 4038.503671 16186.096197 C 3894.092231 16242.993126 3749.662939 16299.997172 3512.631083 16281.108891 C 3275.617079 16262.095641 2945.946953 16167.297181 2709.218595 16055.8956 C 2472.454531 15944.601137 2328.596529 15816.792817 2221.06901 15718.495205 C 2113.541491 15620.304709 2042.344455 15551.607068 2093.992655 15564.407538 C 2145.640856 15577.208008 2320.152146 15671.506589 2500.429896 15684.199942 C 2680.707646 15696.804031 2866.769708 15627.892156 2984.58045 15590.40124 C 3102.373339 15552.892471 3151.93276 15546.80466 3201.456476 15540.698996" stroke-width="32.388" transform="matrix(.2188 0 0 -.2188 0 3868)"/><path d="M 4127.018013 16090.098697 C 3877.260997 16170.892797 3627.50398 16251.595852 3389.983527 16275.795843 C 3152.481284 16299.995834 2927.197396 16267.692761 2741.809805 16217.708581 C 2556.422215 16167.706192 2410.912714 16100.004487 2316.552779 16039.896007 C 2222.192845 15979.896782 2178.982477 15927.508991 2135.790319 15875.102991" stroke-width="33.035" transform="matrix(.21452 0 0 -.21452 0 3868)"/><path d="M 11056.108186 14230.201706 C 11112.991659 14232.809853 11184.403159 14362.893886 11310.19776 14481.10115 C 11435.992362 14599.308414 11616.191619 14705.703574 11728.298836 14828.308045 C 11840.406054 14950.998735 11884.399676 15090.006511 11898.302609 15263.09264 C 11912.097768 15436.200324 11895.996231 15643.30014 11802.490923 15842.295301 C 11709.007169 16041.398236 11538.205864 16232.396516 11477.291617 16266.194654 C 11416.398926 16299.992792 11465.393293 16176.590789 11428.900788 16048.209595 C 11392.408283 15919.806847 11270.601345 15786.403354 11172.397061 15607.195624 C 11074.300551 15428.095668 10999.892915 15203.191475 10960.792263 15007.300225 C 10921.691611 14811.408975 10917.790167 14644.509113 10937.103389 14498.495983 C 10956.502831 14352.590627 10999.095382 14227.593559 11056.108186 14230.201706 Z M 11056.108186 14230.201706" stroke-width="39.104" transform="matrix(.18122 0 0 -.18122 0 3868)"/><path d="M 11079.008603 14259.701398 C 11227.593283 14461.097468 11376.091565 14662.407138 11470.309675 14880.694213 C 11564.506185 15099.002886 11604.206525 15334.202565 11600.296971 15573.592595 C 11596.409016 15813.004225 11548.803166 16056.498207 11501.197317 16299.99219" stroke-width="39.186" transform="matrix(.18085 0 0 -.18085 0 3868)"/><path d="M 2855.210211 14017.306559 C 2846.320188 13997.39739 2837.056634 13978.40337 2826.691166 13962.995242 M 2783.230906 13902.80082 C 2739.994765 13845.893467 2684.208002 13782.99095 2607.522215 13731.798612 C 2503.606062 13662.303284 2361.290987 13614.099188 2217.500466 13603.490925 C 2073.709946 13592.901339 1928.406627 13619.795526 1806.841164 13684.397606 C 1685.275701 13748.999686 1587.429418 13851.197598 1570.67658 13937.296351 C 1553.905066 14023.395104 1618.226998 14093.301315 1683.202608 14148.509106 C 1748.215571 14203.69822 1813.863535 14244.095531 1870.191917 14313.908359 C 1926.520299 14383.702511 1973.510421 14483.005563 2045.713843 14514.699616 C 2117.935943 14546.393669 2215.39002 14510.590782 2289.442418 14442.290751 C 2363.476139 14374.10278 2414.07083 14273.398989 2392.144596 14292.206244 C 2370.218363 14310.994822 2275.715176 14449.294446 2235.784778 14554.499278 C 2195.873057 14659.797493 2210.571478 14732.094298 2278.255183 14770.493221 C 2345.957565 14808.892145 2466.663908 14813.505245 2560.307974 14854.406822 C 2653.970718 14895.308399 2720.552508 14972.498452 2785.789589 14926.909069 C 2851.007994 14881.301009 2914.863013 14712.894837 2940.487197 14557.805022 C 2966.092705 14402.603148 2953.486054 14260.792339 2964.860055 14229.39711 C 2976.215378 14198.001881 3011.588705 14277.09694 3051.612486 14320.202346 C 3091.61759 14363.307752 3136.291823 14370.498212 3161.822625 14439.395891 C 3175.736632 14476.898341 3183.972977 14532.591721 3195.75786 14592.991584 M 3276.365717 14822.992917 C 3298.29195 14861.298457 3322.496719 14898.502083 3343.694568 14937.704097 M 3097.313928 15920.892092 C 3076.620345 15901.505865 3057.290148 15878.907277 3041.321724 15852.704121 C 2976.084643 15745.893108 2967.063884 15581.801211 2983.667309 15482.498159 C 3000.270735 15383.195107 3042.498345 15348.792959 3011.364587 15389.003505 C 2980.249506 15429.195374 2875.754382 15544.093319 2818.043938 15660.298621 C 2760.333494 15776.391864 2749.389054 15893.792463 2687.905953 15997.89538 C 2626.422852 16101.998298 2514.363737 16192.691475 2403.798744 16224.703028 C 2293.215075 16256.695906 2184.125527 16229.895101 2119.93433 16240.708805 C 2055.724458 16251.597216 2036.468966 16300.006753 2052.549449 16249.897653 C 2068.667285 16199.807228 2120.177125 16051.104783 2150.881323 15946.105393 C 2181.58552 15841.106003 2191.521428 15779.697608 2164.141651 15810.794012 C 2136.761874 15841.909093 2072.141118 15965.49162 1975.826309 16026.096924 C 1879.548853 16086.795611 1751.596021 16084.405017 1669.624778 16017.393666 C 1587.653536 15950.30761 1551.645207 15818.395355 1523.686458 15750.300767 C 1495.746385 15682.206178 1475.81854 15677.891902 1473.203827 15623.001612 C 1470.607791 15568.204705 1485.324888 15462.794432 1546.21034 15369.505219 C 1607.114469 15276.290712 1714.186953 15194.991824 1840.272133 15123.703551 C 1966.338637 15052.396601 2111.455191 14991.100265 2181.940374 14919.905374 C 2252.444233 14848.803866 2248.298046 14768.009244 2200.635569 14793.502693 C 2152.991769 14818.996142 2061.794326 14951.001779 1943.926814 15010.393109 C 1826.059302 15069.896499 1681.484368 15056.804259 1539.412087 15060.203386 C 1397.377159 15063.695895 1257.826209 15083.493005 1154.078145 15048.399826 C 1050.348758 15013.400029 982.366228 14923.304501 973.214734 14877.098793 C 964.044563 14831.005143 1013.686751 14828.707932 1049.358902 14803.009041 C 1085.012377 14777.198092 1106.714493 14728.004141 1165.302733 14695.096114 C 1223.90965 14662.094705 1319.402692 14645.491279 1309.896344 14640.504649 C 1300.352643 14635.499341 1185.86558 14642.204212 1101.597126 14635.499341 C 1017.328672 14628.794471 963.297502 14608.605154 945.087896 14575.902569 C 926.896967 14543.106601 944.508924 14497.890749 917.035764 14469.409057 C 889.543928 14440.908689 816.966975 14429.105129 764.654045 14380.602209 C 712.341115 14332.099289 680.292208 14246.691567 685.727075 14145.595569 C 691.161942 14044.499571 734.09926 13927.69662 754.344607 13848.39612 C 774.571277 13769.207679 772.143329 13727.596395 807.890187 13719.005196 C 843.637044 13710.50738 917.59606 13734.992296 912.534723 13727.29757 C 907.473387 13719.602845 823.410374 13679.691123 795.470302 13632.794384 C 767.511553 13585.897644 795.69442 13531.99721 864.610775 13502.506987 C 933.545807 13472.904704 1043.251681 13467.693955 1156.263298 13477.405745 C 1269.274915 13487.005476 1385.610952 13511.509069 1518.625121 13500.39654 C 1651.620614 13489.209305 1801.256885 13442.293889 1923.251908 13442.499331 C 2045.228254 13442.704772 2139.563352 13490.105778 2174.152265 13524.302484 C 2208.722502 13558.499191 2183.546554 13579.69704 2134.614074 13542.007824 C 2085.718947 13504.299932 2013.067288 13407.798358 1983.128828 13295.197624 C 1953.171691 13182.70895 1965.909077 13054.102439 1976.442634 13045.492564 C 1987.013544 13036.901365 1995.399301 13148.306802 2068.10699 13240.792924 C 2140.814679 13333.297723 2277.862976 13406.995268 2363.756287 13478.096776 C 2449.668275 13549.291667 2484.406601 13617.909198 2519.163603 13686.601435" stroke-width="33.882" transform="matrix(.20915 0 0 -.20915 0 3868)"/><path d="M 3339.260368 15630.096846 C 3332.215307 15702.908925 3326.606809 15775.504537 3323.753363 15847.706569 C 3319.935648 15944.290809 3320.998311 16040.402754 3325.977083 16123.900498 M 3254.758998 16300.007336 C 3226.441002 16270.390531 3193.911714 16236.60179 3158.863521 16201.49456 C 3065.329517 16107.90152 2953.82864 16005.905571 2876.608478 15930.909129 C 2799.368637 15855.893008 2756.448868 15807.896073 2741.000899 15770.309296 C 2725.592289 15732.801236 2737.714516 15705.703335 2718.88177 15721.407129 C 2700.049024 15736.99285 2650.261305 15795.49834 2616.748069 15783.809049 C 2583.215155 15772.198475 2565.917366 15690.393119 2573.001785 15672.898541 C 2580.066524 15655.305568 2611.454434 15701.905299 2596.242613 15733.509678 C 2581.050471 15765.094377 2519.21924 15781.703403 2503.515446 15758.403537 C 2487.791973 15735.103672 2518.215614 15671.894915 2516.464189 15675.200977 C 2514.732442 15678.507039 2480.805949 15748.406636 2447.587897 15754.408712 C 2414.310809 15760.39111 2381.722483 15702.594062 2386.701255 15664.908891 C 2391.719385 15627.105647 2434.284933 15609.492995 2446.997529 15627.007252 C 2459.729803 15644.50183 2442.569767 15697.103638 2402.95606 15691.199956 C 2363.342353 15685.296274 2301.314333 15620.90678 2285.964759 15572.791771 C 2270.654544 15524.598046 2302.042454 15492.600089 2291.396147 15498.798955 C 2280.74984 15504.899426 2228.069316 15549.098327 2204.080688 15534.201369 C 2180.09206 15519.304411 2184.815005 15445.193521 2204.454588 15394.894149 C 2224.113849 15344.594778 2258.709427 15318.205318 2255.777265 15340.009584 C 2252.845102 15361.892566 2212.40488 15432.107026 2177.789624 15447.909215 C 2143.154688 15463.809799 2114.364399 15425.298112 2111.629026 15390.60414 C 2108.873974 15355.792095 2132.232876 15324.797763 2126.722773 15325.092948 C 2121.232349 15325.407811 2086.931956 15357.090905 2069.850635 15341.091926 C 2052.749636 15325.191342 2052.887389 15261.490612 2052.966104 15197.907955" stroke-width="35.701" transform="matrix(.1985 0 0 -.1985 0 3868)"/><path d="M 1169.801249 16268.198634 C 1252.226554 16284.108586 1334.651858 16299.997548 1436.177501 16253.296173 C 1537.724133 16206.594797 1658.392092 16097.303083 1755.803816 16042.709699 C 1853.21554 15988.095326 1927.350038 15988.200273 2001.526516 15988.30522" stroke-width="38.078" transform="matrix(.1861 0 0 -.1861 0 3868)"/><path d="M 5060.83447 12616.395318 C 5142.89827 12821.390646 5224.94018 13026.495422 5335.000672 13256.007009 C 5445.083054 13485.409148 5583.227797 13739.19621 5627.816743 13964.899021 C 5672.449468 14190.68939 5623.592066 14388.395509 5514.341486 14454.501851 C 5405.090906 14520.498745 5235.469038 14454.808304 5223.517362 14435.392302 C 5211.500017 14415.910632 5357.152864 14442.703401 5425.623273 14383.995716 C 5494.071793 14325.397479 5485.359766 14181.298787 5379.742845 13982.804646 C 5274.147815 13784.201057 5071.604113 13531.092571 5016.398751 13316.991204 C 4961.193388 13102.802278 5053.304477 12927.489136 5076.616812 12804.294933 C 5099.929148 12680.991283 5054.530289 12609.697126 5025.066999 12582.510346 C 4995.625599 12555.301676 4982.207325 12572.090936 4898.830154 12507.100959 C 4815.496762 12442.001535 4662.204474 12295.100986 4540.91466 12219.604041 C 4419.602956 12144.194655 4330.271836 12140.298321 4272.352174 12201.698416 C 4214.454401 12263.098512 4187.946196 12389.904485 4234.767873 12578.307559 C 4281.61144 12766.798191 4401.762999 13016.907813 4527.211822 13186.792356 C 4652.660645 13356.698788 4783.341062 13446.292581 4871.096136 13569.092772 C 4958.85121 13691.805405 5003.680941 13847.505541 4976.07826 13949.904702 C 4948.4318 14052.194415 4848.440486 14101.205044 4799.692531 14079.994102 C 4750.988355 14058.892608 4753.527539 13967.700879 4694.031832 13904.790407 C 4634.514235 13841.901824 4512.961746 13807.403945 4411.766509 13657.504532 C 4310.571271 13507.692677 4229.733284 13242.391729 4172.886208 13090.50037 C 4116.039132 12938.696569 4083.182967 12900.192908 4132.040369 12923.505244 C 4180.875882 12946.905137 4311.359293 13032.099138 4332.679683 12987.794755 C 4354.021962 12943.490373 4266.17933 12769.709496 4216.796579 12617.095783 C 4167.413829 12464.503959 4156.46907 12333.210635 4089.465258 12227.309151 C 4022.483336 12121.495226 3899.420471 12041.095029 3764.449708 11997.491111 C 3629.435166 11953.996641 3482.447059 11947.298448 3393.53184 11872.392521 C 3304.594732 11797.508483 3273.708624 11654.504267 3267.864122 11672.49745 C 3261.997732 11690.490633 3281.172949 11869.70011 3371.642323 12052.302462 C 3462.089808 12234.795366 3623.809561 12420.900041 3641.03661 12457.893325 C 3658.26366 12494.908498 3530.976118 12382.790392 3399.90169 12235.408273 C 3268.805372 12088.004264 3133.900278 11905.204907 3031.632454 11805.410598 C 2929.34274 11705.506842 2859.690297 11688.695693 2842.988595 11711.701575 C 2826.221225 11734.59801 2862.382707 11797.508483 2813.240741 11865.19087 C 2764.054996 11933.004594 2629.565803 12005.69968 2610.521923 12101.006638 C 2591.478043 12196.291706 2687.901366 12314.210534 2826.680905 12385.701697 C 2965.460443 12457.19286 3146.596198 12482.409584 3334.999272 12595.00926 C 3523.402345 12707.608936 3719.094629 12907.701012 3804.967204 13062.700683 C 3890.83978 13217.700354 3866.914538 13327.695177 3795.379596 13268.702929 C 3723.822764 13209.71068 3604.656233 12981.70947 3432.254396 12805.104846 C 3259.83067 12628.390774 3034.215417 12503.00762 2851.065827 12433.508403 C 2667.938127 12364.009186 2527.319869 12350.306348 2410.561184 12422.30097 C 2293.8025 12494.208034 2200.925279 12651.70311 2060.110015 12756.904129 C 1919.316641 12862.192706 1730.585224 12915.099669 1631.184927 12977.397235 C 1531.76274 13039.607243 1521.649783 13111.207853 1543.911422 13161.291068 C 1566.173061 13211.396173 1620.809296 13240.09333 1704.865041 13355.2103 C 1788.964566 13470.305382 1902.483602 13671.798387 2069.544397 13828.702445 C 2236.627081 13985.606504 2457.229635 14097.899727 2720.779421 14102.693531 C 2984.329207 14107.509225 3290.782447 14004.694163 3419.230133 13945.592467 C 3547.67782 13886.490771 3498.098064 13870.992993 3352.051205 13909.803106 C 3206.026237 13948.591331 2963.577945 14041.709337 2726.186132 14050.202469 C 2488.794318 14058.695602 2256.480873 13982.498193 2120.590751 13900.806515 C 1984.678739 13819.202395 1945.21194 13732.104006 1857.960324 13743.793009 C 1770.708709 13755.5039 1635.694167 13866.002183 1600.999283 13934.297476 C 1566.304398 14002.505211 1631.907281 14028.40051 1686.018167 14045.999682 C 1740.150943 14063.489406 1782.791722 14072.704893 1761.646449 14121.496627 C 1740.523065 14170.200802 1655.613628 14258.503114 1608.35416 14368.41038 C 1561.072803 14478.295756 1551.441416 14609.807975 1590.382867 14709.208272 C 1629.302428 14808.499122 1716.772939 14875.699939 1824.929043 14859.698702 C 1933.107037 14843.697465 2061.970624 14744.603621 2120.809646 14743.005686 C 2179.604889 14741.49531 2168.375567 14837.59029 2090.032985 14874.408458 C 2011.690403 14911.292294 1866.256451 14889.008766 1859.383143 14933.70716 C 1852.509835 14978.493112 1984.219059 15090.304765 2133.571234 15199.095665 C 2282.92341 15307.908455 2449.896646 15413.700491 2672.075245 15412.606015 C 2894.231955 15411.48965 3171.572137 15303.399214 3404.586046 15099.60781 C 3637.621846 14895.794516 3826.331373 14596.105137 3910.014997 14406.804593 C 3993.698621 14217.504049 3972.356342 14138.395334 3884.119698 14251.301463 C 3795.883055 14364.207592 3640.730157 14668.909671 3549.319534 14908.599883 C 3457.9308 15148.290096 3430.218671 15322.902774 3444.578194 15493.290775 C 3458.915828 15663.810114 3515.303224 15830.104775 3484.439005 15982.609041 C 3453.509117 16135.091418 3335.349504 16273.805288 3340.362203 16286.895219 C 3345.396792 16300.00704 3473.647473 16187.494922 3655.264797 16149.407162 C 3836.860231 16111.209954 4071.822308 16147.196321 4244.661935 15988.300316 C 4417.479673 15829.404311 4528.19685 15475.604046 4563.154409 15437.297391 C 4598.068189 15399.100183 4557.244239 15676.506034 4578.323844 15774.395954 C 4599.403449 15872.395323 4682.430388 15790.791203 4739.146127 15644.897571 C 4795.905645 15499.091497 4826.419631 15288.798906 4826.397742 15091.00523 C 4826.375852 14893.299111 4795.796197 14708.004348 4725.180615 14571.194866 C 4654.565033 14434.297826 4543.913523 14345.995514 4568.517341 14349.300831 C 4593.121158 14352.693706 4752.936523 14447.694211 4829.703059 14573.099254 C 4906.469596 14698.504298 4900.165415 14854.401439 4921.266909 15001.192541 C 4942.302735 15148.005532 4990.722347 15285.800043 5012.108405 15267.106395 C 5033.516353 15248.390858 5027.803189 15073.099605 5064.9497 14911.401742 C 5102.1181 14749.703879 5182.102395 14601.708853 5189.325936 14416.89566 C 5196.549477 14232.104357 5131.012262 14010.691891 5069.48083 13952.290659 C 5007.971287 13893.998875 4950.467525 13998.805883 4953.313162 14086.407731 C 4956.1588 14174.097136 5019.331946 14244.603271 5013.115323 14328.199337 C 5006.8987 14411.795403 4931.248529 14508.503289 4855.620247 14605.298734" stroke-width="39.711" transform="matrix(.17845 0 0 -.17845 0 3868)"/><path d="M 4609.138415 15787.505827 C 4546.350406 15832.892098 4483.586838 15878.205048 4448.563399 15982.493266 C 4413.539959 16086.805925 4406.305529 16249.898327 4473.321769 16274.998866 C 4540.362449 16300.001642 4681.629358 16186.890353 4740.115813 16075.807636 C 4798.577828 15964.602716 4774.210509 15855.206404 4744.392926 15854.106575 C 4714.575343 15853.006746 4679.283056 15960.007876 4714.330936 16054.593159 C 4749.403257 16149.105121 4854.840186 16231.201236 4914.304267 16174.010134 C 4973.743907 16116.69683 4987.210701 15920.096308 4959.299488 15809.600167 C 4931.437157 15699.201788 4862.196819 15674.90779 4894.018534 15744.19701 C 4925.84025 15813.510669 5058.797341 15976.505309 5112.346787 15967.902203 C 5165.871792 15959.299097 5139.989152 15779.293771 5074.830401 15691.991799 C 5009.64721 15604.592064 4905.114586 15609.895683 4945.906017 15630.205857 C 4986.746329 15650.491589 5172.910697 15685.710554 5176.210183 15643.110515 C 5179.558551 15600.388274 4999.993157 15479.89591 4907.55865 15498.006426 C 4815.148583 15515.994738 4809.796083 15672.488167 4749.843189 15745.907854 C 4689.890295 15819.400864 4575.288126 15809.600167 4483.489076 15699.592838 C 4391.690025 15589.609951 4322.669653 15379.395992 4345.521653 15253.111196 C 4368.373653 15126.704197 4483.073585 15084.299684 4538.529401 15104.194366 C 4594.034098 15123.991286 4590.270239 15205.989639 4589.90363 15170.110777 C 4589.53702 15134.109711 4592.469897 14980.206991 4545.666068 14887.699162 C 4498.837799 14795.289096 4402.15062 14764.493887 4362.361255 14789.789951 C 4322.571891 14815.208219 4339.655899 14896.791081 4379.518586 14944.890263 C 4419.405713 14992.891684 4482.095959 15007.507188 4455.993354 14973.70578 C 4429.890748 14940.002135 4315.019732 14858.003782 4202.519459 14866.802413 C 4090.019185 14875.503282 3979.914094 14975.196659 4013.715502 15042.090696 C 4047.468028 15108.91141 4225.200374 15143.103868 4257.04653 15134.207474 C 4288.868246 15125.408843 4174.877093 15073.399158 4065.236374 15089.50554 C 3955.546774 15105.611923 3850.158727 15189.809934 3875.01486 15245.705681 C 3899.870993 15301.699192 4054.946864 15329.390439 4159.357285 15306.098507 C 4263.718825 15282.806576 4317.463797 15208.409262 4259.515035 15188.710105 C 4201.541833 15169.010948 4031.899339 15203.912184 3939.660357 15276.696415 C 3847.445816 15349.505087 3832.585906 15460.196753 3913.606633 15496.295581 C 3994.60292 15532.296646 4171.528725 15493.704873 4201.615155 15473.296937 C 4231.726025 15453.011204 4115.021961 15450.811547 4053.016053 15534.203016 C 3991.034586 15617.594486 3983.775715 15786.699285 4045.488336 15807.498272 C 4107.200956 15828.297258 4237.909508 15700.79043 4238.031711 15648.707422 C 4238.178355 15596.599974 4107.73865 15619.794143 4058.686282 15715.088205 C 4009.633914 15810.308945 4041.968883 15977.605138 4119.103549 15981.588962 C 4196.189332 15985.499465 4318.001491 15826.195362 4439.86253 15666.89126" stroke-width="44.339" transform="matrix(.15983 0 0 -.15983 0 3868)"/><path d="M 6297.815012 15681.40595 C 6182.901352 15474.487801 6067.96142 15267.490836 6028.553444 15069.689066 C 5989.171739 14871.887295 6025.400805 14683.306991 6133.247301 14508.493207 C 6241.120069 14333.705695 6420.610267 14172.78979 6552.206637 13984.288302 C 6683.776734 13795.891902 6767.426733 13579.909919 6770.920907 13469.304864 C 6774.441353 13358.804898 6697.832246 13353.786949 6884.993863 13504.509323 C 7072.208024 13655.310514 7523.245452 13961.799484 7767.837627 14303.098833 C 8012.482345 14644.398182 8050.629267 15020.402823 8031.818526 15358.996158 C 8012.981513 15697.694581 7937.134294 15998.797794 7899.22382 16149.388809 C 7861.287075 16300.006095 7861.287075 16300.006095 7861.287075 16300.006095" stroke-width="47.662" transform="matrix(.14869 0 0 -.14869 0 3868)"/><path d="M 7134.56546 13994.004164 C 7193.941222 14254.511578 7253.371433 14514.991767 7234.09677 14783.911428 C 7214.849331 15052.694968 7116.951467 15329.809083 7146.843529 15583.891609 C 7176.708367 15837.892463 7334.36313 16068.997848 7491.99067 16299.994337" stroke-width="49.389" transform="matrix(.14349 0 0 -.14349 0 3868)"/><path d="M 5275.561734 16154.098145 C 5112.235635 15986.090538 4948.938796 15818.112191 4896.447391 15489.294796 C 4843.955986 15160.506661 4902.270016 14670.908737 4919.533076 14424.31032 C 4936.766876 14177.711904 4912.978965 14174.112995 4993.091265 14274.414297 C 5073.262084 14374.803377 5257.391632 14579.297484 5560.372957 14797.309444 C 5863.266503 15015.292145 6285.041085 15246.792699 6504.516016 15499.506335 C 6724.020207 15752.190712 6741.283267 16026.08817 6758.517067 16299.985628" stroke-width="53.082" transform="matrix(.1335 0 0 -.1335 0 3868)"/><path d="M 4806.776414 13810.307137 C 4899.159228 14085.409574 4991.513625 14360.398344 5274.572749 14740.301708 C 5557.631872 15120.091406 6031.424138 15604.596782 6270.948819 15882.000975 C 6510.38825 16159.490417 6515.560096 16229.708176 6520.731942 16300.011185" stroke-width="51.553" transform="matrix(.13746 0 0 -.13746 0 3868)"/><path d="M 9980.410883 15927.094977 C 10082.091321 15908.399512 10183.70817 15889.598064 10327.909133 15871.496105 C 10472.110097 15853.394147 10658.895175 15835.800909 10802.205878 15797.392538 C 10945.707352 15759.005364 11045.692056 15699.697074 11055.103379 15718.095786 C 11064.493505 15736.494498 10983.204265 15832.600211 10883.897854 15942.589745 C 10784.506657 16052.494492 10666.992304 16176.304257 10549.605131 16300.008038" stroke-width="38.454" transform="matrix(.18429 0 0 -.18429 0 3868)"/><path d="M 10993.495438 15982.109948 C 11110.50247 16053.791318 11227.399596 16125.406744 11305.895202 16178.403918 C 11384.390809 16231.401091 11424.396971 16265.692087 11464.403133 16300.005065" stroke-width="39.878" transform="matrix(.1777 0 0 -.1777 0 3868)"/></g></svg>